{
  "accessors": [
    {
      "bufferView": 2,
      "componentType": 5126,
      "count": 988,
      "max": [
        0.05080000311136246,
        0.07350000739097595,
        0.011883465573191643
      ],
      "min": [
        -0.05080000311136246,
        -0.07350000739097595,
        0.010234192945063114
      ],
      "type": "VEC3"
    },
    {
      "bufferView": 2,
      "byteOffset": 11856,
      "componentType": 5126,
      "count": 988,
      "max": [
        1.0,
        1.0,
        1.0
      ],
      "min": [
        -1.0,
        -1.0,
        -0.00010125949484063312
      ],
      "type": "VEC3"
    },
    {
      "bufferView": 3,
      "componentType": 5126,
      "count": 988,
      "max": [
        1.0,
        1.0,
        1.0,
        1.0
      ],
      "min": [
        -0.9999576807022095,
        -1.0,
        -1.0,
        1.0
      ],
      "type": "VEC4"
    },
    {
      "bufferView": 1,
      "componentType": 5126,
      "count": 988,
      "max": [
        0.9942495822906494,
        0.998779296875
      ],
      "min": [
        0.001220703125,
        0.001220703125
      ],
      "type": "VEC2"
    },
    {
      "bufferView": 0,
      "componentType": 5125,
      "count": 4368,
      "type": "SCALAR"
    },
    {
      "bufferView": 2,
      "byteOffset": 23712,
      "componentType": 5126,
      "count": 2573,
      "max": [
        0.050800006836652756,
        0.07350000739097595,
        0.012523951008915901
      ],
      "min": [
        -0.05080001801252365,
        -0.07350000739097595,
        -0.01250000111758709
      ],
      "type": "VEC3"
    },
    {
      "bufferView": 2,
      "byteOffset": 54588,
      "componentType": 5126,
      "count": 2573,
      "max": [
        1.0,
        1.0,
        1.0
      ],
      "min": [
        -1.0,
        -1.0,
        -1.0
      ],
      "type": "VEC3"
    },
    {
      "bufferView": 3,
      "byteOffset": 15808,
      "componentType": 5126,
      "count": 2573,
      "max": [
        1.0,
        1.0,
        1.0,
        1.0
      ],
      "min": [
        -1.0,
        -1.0,
        -1.0,
        -1.0
      ],
      "type": "VEC4"
    },
    {
      "bufferView": 1,
      "byteOffset": 7904,
      "componentType": 5126,
      "count": 2573,
      "max": [
        0.9966294169425964,
        0.9971160888671875
      ],
      "min": [
        0.001220703125,
        0.0012231506407260895
      ],
      "type": "VEC2"
    },
    {
      "bufferView": 0,
      "byteOffset": 17472,
      "componentType": 5125,
      "count": 6990,
      "type": "SCALAR"
    },
    {
      "bufferView": 2,
      "byteOffset": 85464,
      "componentType": 5126,
      "count": 868,
      "max": [
        0.08678711205720901,
        0.04199685528874397,
        0.020416082814335823
      ],
      "min": [
        -0.0554901659488678,
        -0.055792436003685,
        -0.0016489634290337563
      ],
      "type": "VEC3"
    },
    {
      "bufferView": 2,
      "byteOffset": 95880,
      "componentType": 5126,
      "count": 868,
      "max": [
        1.0,
        0.9999247193336487,
        1.0
      ],
      "min": [
        -1.0,
        -0.9999247193336487,
        -1.0
      ],
      "type": "VEC3"
    },
    {
      "bufferView": 3,
      "byteOffset": 56976,
      "componentType": 5126,
      "count": 868,
      "max": [
        0.9848113656044006,
        1.0,
        1.0,
        1.0
      ],
      "min": [
        -0.9281615018844604,
        -1.0,
        -1.0,
        1.0
      ],
      "type": "VEC4"
    },
    {
      "bufferView": 1,
      "byteOffset": 28488,
      "componentType": 5126,
      "count": 868,
      "max": [
        0.9077171087265015,
        0.955997884273529
      ],
      "min": [
        0.0075312089174985886,
        0.0012523538898676634
      ],
      "type": "VEC2"
    },
    {
      "bufferView": 0,
      "byteOffset": 45432,
      "componentType": 5125,
      "count": 2532,
      "type": "SCALAR"
    },
    {
      "bufferView": 2,
      "byteOffset": 106296,
      "componentType": 5126,
      "count": 482,
      "max": [
        0.008770802989602089,
        0.030984383076429367,
        0.0056252977810800076
      ],
      "min": [
        -0.005342225078493357,
        -0.05050215125083923,
        -0.00302405864931643
      ],
      "type": "VEC3"
    },
    {
      "bufferView": 2,
      "byteOffset": 112080,
      "componentType": 5126,
      "count": 482,
      "max": [
        1.0,
        1.0,
        1.0
      ],
      "min": [
        -1.0,
        -1.0,
        -1.0
      ],
      "type": "VEC3"
    },
    {
      "bufferView": 3,
      "byteOffset": 70864,
      "componentType": 5126,
      "count": 482,
      "max": [
        1.0,
        1.0,
        1.0,
        1.0
      ],
      "min": [
        -1.0,
        -1.0,
        -1.0,
        1.0
      ],
      "type": "VEC4"
    },
    {
      "bufferView": 1,
      "byteOffset": 35432,
      "componentType": 5126,
      "count": 482,
      "max": [
        0.9887773394584656,
        0.9805130958557129
      ],
      "min": [
        0.001220703125,
        0.0012207115069031715
      ],
      "type": "VEC2"
    },
    {
      "bufferView": 0,
      "byteOffset": 55560,
      "componentType": 5125,
      "count": 966,
      "type": "SCALAR"
    },
    {
      "bufferView": 2,
      "byteOffset": 117864,
      "componentType": 5126,
      "count": 193,
      "max": [
        0.047674596309661865,
        0.018042543902993202,
        3.9257222472777187e-10
      ],
      "min": [
        -0.016398685052990913,
        -0.08009170740842819,
        -0.0011196668492630124
      ],
      "type": "VEC3"
    },
    {
      "bufferView": 2,
      "byteOffset": 120180,
      "componentType": 5126,
      "count": 193,
      "max": [
        1.0,
        1.0,
        9.694562322692946e-06
      ],
      "min": [
        -1.0,
        -1.0,
        -1.0
      ],
      "type": "VEC3"
    },
    {
      "bufferView": 3,
      "byteOffset": 78576,
      "componentType": 5126,
      "count": 193,
      "max": [
        1.0,
        1.0,
        8.619787877250928e-06,
        1.0
      ],
      "min": [
        -1.0,
        -1.0,
        -1.0,
        1.0
      ],
      "type": "VEC4"
    },
    {
      "bufferView": 1,
      "byteOffset": 39288,
      "componentType": 5126,
      "count": 193,
      "max": [
        0.9018341898918152,
        0.9343067407608032
      ],
      "min": [
        0.0075312103144824505,
        0.04978305846452713
      ],
      "type": "VEC2"
    },
    {
      "bufferView": 0,
      "byteOffset": 59424,
      "componentType": 5125,
      "count": 537,
      "type": "SCALAR"
    }
  ],
  "asset": {
    "extras": {
      "author": "Jamoues (https://sketchfab.com/Jamoues)",
      "license": "CC-BY-SA-4.0 (http://creativecommons.org/licenses/by-sa/4.0/)",
      "source": "https://sketchfab.com/3d-models/hard-drive-946666a390b44c90901e7dd07fb509a5",
      "title": "Hard Drive"
    },
    "generator": "Sketchfab-15.44.0",
    "version": "2.0"
  },
  "bufferViews": [
    {
      "buffer": 0,
      "byteLength": 61572,
      "name": "floatBufferViews",
      "target": 34963
    },
    {
      "buffer": 0,
      "byteLength": 40832,
      "byteOffset": 61572,
      "byteStride": 8,
      "name": "floatBufferViews",
      "target": 34962
    },
    {
      "buffer": 0,
      "byteLength": 122496,
      "byteOffset": 102404,
      "byteStride": 12,
      "name": "floatBufferViews",
      "target": 34962
    },
    {
      "buffer": 0,
      "byteLength": 81664,
      "byteOffset": 224900,
      "byteStride": 16,
      "name": "floatBufferViews",
      "target": 34962
    }
  ],
  "buffers": [
    {
      "byteLength": 306564,
      "uri": "scene.bin"
    }
  ],
  "images": [
    {
      "uri": "textures/Scene_-_Root_baseColor.png"
    },
    {
      "uri": "textures/Scene_-_Root_metallicRoughness.png"
    },
    {
      "uri": "textures/Scene_-_Root_normal.png"
    }
  ],
  "materials": [
    {
      "doubleSided": true,
      "name": "Scene_-_Root",
      "normalTexture": {
        "index": 2
      },
      "pbrMetallicRoughness": {
        "baseColorTexture": {
          "index": 0
        },
        "metallicRoughnessTexture": {
          "index": 1
        }
      }
    }
  ],
  "meshes": [
    {
      "name": "1_low.001__0",
      "primitives": [
        {
          "attributes": {
            "NORMAL": 1,
            "POSITION": 0,
            "TANGENT": 2,
            "TEXCOORD_0": 3
          },
          "indices": 4,
          "material": 0,
          "mode": 4
        }
      ]
    },
    {
      "name": "2_low.001__0",
      "primitives": [
        {
          "attributes": {
            "NORMAL": 6,
            "POSITION": 5,
            "TANGENT": 7,
            "TEXCOORD_0": 8
          },
          "indices": 9,
          "material": 0,
          "mode": 4
        }
      ]
    },
    {
      "name": "5_low.001__0",
      "primitives": [
        {
          "attributes": {
            "NORMAL": 11,
            "POSITION": 10,
            "TANGENT": 12,
            "TEXCOORD_0": 13
          },
          "indices": 14,
          "material": 0,
          "mode": 4
        }
      ]
    },
    {
      "name": "3_low.001__0",
      "primitives": [
        {
          "attributes": {
            "NORMAL": 16,
            "POSITION": 15,
            "TANGENT": 17,
            "TEXCOORD_0": 18
          },
          "indices": 19,
          "material": 0,
          "mode": 4
        }
      ]
    },
    {
      "name": "4_low.001__0",
      "primitives": [
        {
          "attributes": {
            "NORMAL": 21,
            "POSITION": 20,
            "TANGENT": 22,
            "TEXCOORD_0": 23
          },
          "indices": 24,
          "material": 0,
          "mode": 4
        }
      ]
    }
  ],
  "nodes": [
    {
      "children": [
        1
      ],
      "matrix": [
        0.8281406164169312,
        -0.5576471090316772,
        0.05668145045638072,
        0.0,
        -0.40208354592323303,
        -0.520558297634125,
        0.7532249689102172,
        0.0,
        -0.39052775502204895,
        -0.646566867828369,
        -0.6553161740303041,
        0.0,
        0.0,
        0.0,
        0.0,
        1.0
      ],
      "name": "Sketchfab_model"
    },
    {
      "children": [
        2
      ],
      "matrix": [
        0.009999999776482582,
        0.0,
        0.0,
        0.0,
        0.0,
        0.0,
        0.009999999776482582,
        0.0,
        0.0,
        -0.009999999776482582,
        0.0,
        0.0,
        0.0,
        0.0,
        0.0,
        1.0
      ],
      "name": "f651025d3f494574959b2210bcc7b8f0.fbx"
    },
    {
      "children": [
        3,
        5,
        7,
        9,
        11
      ],
      "name": "RootNode"
    },
    {
      "children": [
        4
      ],
      "matrix": [
        4.371139006309477e-06,
        -1.1102230246251565e-14,
        -99.99999999999991,
        0.0,
        -99.99999999999982,
        -4.371139006309477e-06,
        -4.371139011860592e-06,
        0.0,
        -4.371139011860592e-06,
        99.99999999999991,
        -1.9984014443252818e-13,
        0.0,
        0.0,
        0.008440114557743073,
        0.0,
        1.0
      ],
      "name": "1_low.001"
    },
    {
      "mesh": 0,
      "name": "1_low.001__0"
    },
    {
      "children": [
        6
      ],
      "matrix": [
        4.371139006309477e-06,
        -1.1102230246251565e-14,
        -99.99999999999991,
        0.0,
        -99.99999999999982,
        -4.371139006309477e-06,
        -4.371139011860592e-06,
        0.0,
        -4.371139011860592e-06,
        99.99999999999991,
        -1.9984014443252818e-13,
        0.0,
        0.0,
        0.0,
        0.0,
        1.0
      ],
      "name": "2_low.001"
    },
    {
      "mesh": 1,
      "name": "2_low.001__0"
    },
    {
      "children": [
        8
      ],
      "matrix": [
        100.0,
        0.0,
        0.0,
        0.0,
        -0.0,
        -1.629206793918314e-05,
        -99.99999999999868,
        0.0,
        0.0,
        99.99999999999868,
        -1.629206793918314e-05,
        0.0,
        -1.3558287620544434,
        -0.9190352559089661,
        -0.6603297591209412,
        1.0
      ],
      "name": "5_low.001"
    },
    {
      "mesh": 2,
      "name": "5_low.001__0"
    },
    {
      "children": [
        10
      ],
      "matrix": [
        100.0,
        0.0,
        0.0,
        0.0,
        0.0,
        -1.629206793918314e-05,
        -99.99999999999868,
        0.0,
        0.0,
        99.99999999999868,
        -1.629206793918314e-05,
        0.0,
        6.462377548217773,
        -0.8621873259544373,
        1.3020692790632893e-07,
        1.0
      ],
      "name": "3_low.001"
    },
    {
      "mesh": 3,
      "name": "3_low.001__0"
    },
    {
      "children": [
        12
      ],
      "matrix": [
        100.0,
        0.0,
        0.0,
        0.0,
        0.0,
        -1.629206793918314e-05,
        -99.99999999999868,
        0.0,
        0.0,
        99.99999999999868,
        -1.629206793918314e-05,
        0.0,
        1.6800284385681152,
        -0.9243051409721375,
        -3.0880470275878906,
        1.0
      ],
      "name": "4_low.001"
    },
    {
      "mesh": 4,
      "name": "4_low.001__0"
    }
  ],
  "samplers": [
    {
      "magFilter": 9729,
      "minFilter": 9987,
      "wrapS": 10497,
      "wrapT": 10497
    }
  ],
  "scene": 0,
  "scenes": [
    {
      "name": "Sketchfab_Scene",
      "nodes": [
        0
      ]
    }
  ],
  "textures": [
    {
      "sampler": 0,
      "source": 0
    },
    {
      "sampler": 0,
      "source": 1
    },
    {
      "sampler": 0,
      "source": 2
    }
  ]
}
