{
  "accessors": [
    {
      "bufferView": 2,
      "componentType": 5126,
      "count": 4177,
      "max": [
        41.84654235839844,
        90.56524658203125,
        137.34930419921875
      ],
      "min": [
        -75.08950805664063,
        -15.234831809997559,
        -38.98295593261719
      ],
      "type": "VEC3"
    },
    {
      "bufferView": 2,
      "byteOffset": 50124,
      "componentType": 5126,
      "count": 4177,
      "max": [
        1.0,
        0.9992844462394714,
        0.9998340606689453
      ],
      "min": [
        -0.9998018145561218,
        -0.9986470341682434,
        -0.9998341202735901
      ],
      "type": "VEC3"
    },
    {
      "bufferView": 1,
      "componentType": 5126,
      "count": 4177,
      "max": [
        1.0,
        1.0
      ],
      "min": [
        0.0,
        -7.450580596923828e-09
      ],
      "type": "VEC2"
    },
    {
      "bufferView": 0,
      "componentType": 5125,
      "count": 9084,
      "type": "SCALAR"
    },
    {
      "bufferView": 2,
      "byteOffset": 100248,
      "componentType": 5126,
      "count": 4580,
      "max": [
        42.458675384521484,
        90.56524658203125,
        120.07095336914063
      ],
      "min": [
        -63.381526947021484,
        -3.3079023361206055,
        -25.874839782714844
      ],
      "type": "VEC3"
    },
    {
      "bufferView": 2,
      "byteOffset": 155208,
      "componentType": 5126,
      "count": 4580,
      "max": [
        0.9998338222503662,
        0.9998418092727661,
        0.9996761083602905
      ],
      "min": [
        -0.9996378421783447,
        -0.9997789859771729,
        -0.9992759227752686
      ],
      "type": "VEC3"
    },
    {
      "bufferView": 1,
      "byteOffset": 33416,
      "componentType": 5126,
      "count": 4580,
      "max": [
        1.0,
        1.0
      ],
      "min": [
        0.0,
        -0.002727498533204198
      ],
      "type": "VEC2"
    },
    {
      "bufferView": 0,
      "byteOffset": 36336,
      "componentType": 5125,
      "count": 11976,
      "type": "SCALAR"
    },
    {
      "bufferView": 2,
      "byteOffset": 210168,
      "componentType": 5126,
      "count": 1800,
      "max": [
        41.089027404785156,
        86.60601806640625,
        112.8114242553711
      ],
      "min": [
        -58.60675811767578,
        -15.101411819458008,
        -42.50438690185547
      ],
      "type": "VEC3"
    },
    {
      "bufferView": 2,
      "byteOffset": 231768,
      "componentType": 5126,
      "count": 1800,
      "max": [
        0.9997948408126831,
        0.998633861541748,
        0.9993773102760315
      ],
      "min": [
        -0.9997948408126831,
        -0.99864661693573,
        -0.9993878602981567
      ],
      "type": "VEC3"
    },
    {
      "bufferView": 1,
      "byteOffset": 70056,
      "componentType": 5126,
      "count": 1800,
      "max": [
        0.875,
        1.0000791549682617
      ],
      "min": [
        0.125,
        -5.122274160385132e-09
      ],
      "type": "VEC2"
    },
    {
      "bufferView": 0,
      "byteOffset": 84240,
      "componentType": 5125,
      "count": 5466,
      "type": "SCALAR"
    },
    {
      "bufferView": 2,
      "byteOffset": 253368,
      "componentType": 5126,
      "count": 2331,
      "max": [
        41.80263900756836,
        87.0049057006836,
        137.25253295898438
      ],
      "min": [
        -74.82855224609375,
        -4.847953796386719,
        -28.327957153320313
      ],
      "type": "VEC3"
    },
    {
      "bufferView": 2,
      "byteOffset": 281340,
      "componentType": 5126,
      "count": 2331,
      "max": [
        0.9997440576553345,
        0.9996222853660583,
        0.9981509447097778
      ],
      "min": [
        -0.9996530413627625,
        -0.9997217059135437,
        -0.9991834163665771
      ],
      "type": "VEC3"
    },
    {
      "bufferView": 1,
      "byteOffset": 84456,
      "componentType": 5126,
      "count": 2331,
      "max": [
        1.0,
        1.0
      ],
      "min": [
        0.0,
        0.0
      ],
      "type": "VEC2"
    },
    {
      "bufferView": 0,
      "byteOffset": 106104,
      "componentType": 5125,
      "count": 5616,
      "type": "SCALAR"
    },
    {
      "bufferView": 2,
      "byteOffset": 309312,
      "componentType": 5126,
      "count": 330,
      "max": [
        17.370084762573242,
        53.027008056640625,
        54.531917572021484
      ],
      "min": [
        -19.80706787109375,
        4.42839241027832,
        -21.22602653503418
      ],
      "type": "VEC3"
    },
    {
      "bufferView": 2,
      "byteOffset": 313272,
      "componentType": 5126,
      "count": 330,
      "max": [
        0.9995293021202087,
        0.9908537864685059,
        0.9961210489273071
      ],
      "min": [
        -0.9984842538833618,
        -0.9995604753494263,
        -0.9934373497962952
      ],
      "type": "VEC3"
    },
    {
      "bufferView": 1,
      "byteOffset": 103104,
      "componentType": 5126,
      "count": 330,
      "max": [
        0.65625,
        0.9790664911270142
      ],
      "min": [
        0.34375,
        0.3125
      ],
      "type": "VEC2"
    },
    {
      "bufferView": 0,
      "byteOffset": 128568,
      "componentType": 5125,
      "count": 816,
      "type": "SCALAR"
    },
    {
      "bufferView": 2,
      "byteOffset": 317232,
      "componentType": 5126,
      "count": 416,
      "max": [
        39.913612365722656,
        79.30200958251953,
        119.62837982177734
      ],
      "min": [
        -61.59440612792969,
        43.10396957397461,
        44.36831283569336
      ],
      "type": "VEC3"
    },
    {
      "bufferView": 2,
      "byteOffset": 322224,
      "componentType": 5126,
      "count": 416,
      "max": [
        0.996632993221283,
        0.9945225119590759,
        0.9970364570617676
      ],
      "min": [
        -0.997083842754364,
        -0.9959767460823059,
        -0.996147632598877
      ],
      "type": "VEC3"
    },
    {
      "bufferView": 1,
      "byteOffset": 105744,
      "componentType": 5126,
      "count": 416,
      "max": [
        0.65625,
        1.0
      ],
      "min": [
        0.1249999925494194,
        -1.862645149230957e-09
      ],
      "type": "VEC2"
    },
    {
      "bufferView": 0,
      "byteOffset": 131832,
      "componentType": 5125,
      "count": 1224,
      "type": "SCALAR"
    },
    {
      "bufferView": 2,
      "byteOffset": 327216,
      "componentType": 5126,
      "count": 1446,
      "max": [
        42.0683479309082,
        74.4640884399414,
        118.38612365722656
      ],
      "min": [
        -64.18447875976563,
        29.309864044189453,
        21.496578216552734
      ],
      "type": "VEC3"
    },
    {
      "bufferView": 2,
      "byteOffset": 344568,
      "componentType": 5126,
      "count": 1446,
      "max": [
        0.9990622401237488,
        0.9985530376434326,
        0.9939588904380798
      ],
      "min": [
        -0.9990622401237488,
        -0.9977707266807556,
        -0.9921999573707581
      ],
      "type": "VEC3"
    },
    {
      "bufferView": 1,
      "byteOffset": 109072,
      "componentType": 5126,
      "count": 1446,
      "max": [
        0.875,
        1.0
      ],
      "min": [
        0.125,
        -1.1928436016717114e-09
      ],
      "type": "VEC2"
    },
    {
      "bufferView": 0,
      "byteOffset": 136728,
      "componentType": 5125,
      "count": 3432,
      "type": "SCALAR"
    },
    {
      "bufferView": 2,
      "byteOffset": 361920,
      "componentType": 5126,
      "count": 165,
      "max": [
        8.036385536193848,
        67.71270751953125,
        42.79470443725586
      ],
      "min": [
        2.624730110168457,
        56.51521301269531,
        32.815093994140625
      ],
      "type": "VEC3"
    },
    {
      "bufferView": 2,
      "byteOffset": 363900,
      "componentType": 5126,
      "count": 165,
      "max": [
        0.9988534450531006,
        0.9752953052520752,
        0.9874098896980286
      ],
      "min": [
        -0.9826220273971558,
        -0.9814120531082153,
        -0.9934713840484619
      ],
      "type": "VEC3"
    },
    {
      "bufferView": 1,
      "byteOffset": 120640,
      "componentType": 5126,
      "count": 165,
      "max": [
        0.65625,
        0.29156649112701416
      ],
      "min": [
        0.34375,
        0.02093350887298584
      ],
      "type": "VEC2"
    },
    {
      "bufferView": 0,
      "byteOffset": 150456,
      "componentType": 5125,
      "count": 504,
      "type": "SCALAR"
    },
    {
      "bufferView": 2,
      "byteOffset": 365880,
      "componentType": 5126,
      "count": 120,
      "max": [
        7.542973518371582,
        67.87068939208984,
        42.60940933227539
      ],
      "min": [
        2.9202733039855957,
        56.16864013671875,
        32.31559371948242
      ],
      "type": "VEC3"
    },
    {
      "bufferView": 2,
      "byteOffset": 367320,
      "componentType": 5126,
      "count": 120,
      "max": [
        0.9977200031280518,
        0.9576225876808167,
        0.9913880228996277
      ],
      "min": [
        -0.9806556105613708,
        -0.9760864973068237,
        -0.9957714676856995
      ],
      "type": "VEC3"
    },
    {
      "bufferView": 1,
      "byteOffset": 121960,
      "componentType": 5126,
      "count": 120,
      "max": [
        0.65625,
        0.29156649112701416
      ],
      "min": [
        0.34375,
        0.02093350887298584
      ],
      "type": "VEC2"
    },
    {
      "bufferView": 0,
      "byteOffset": 152472,
      "componentType": 5125,
      "count": 504,
      "type": "SCALAR"
    }
  ],
  "asset": {
    "extras": {
      "author": "AlbertoFerrari (https://sketchfab.com/AlbertoFerrari)",
      "license": "CC-BY-4.0 (http://creativecommons.org/licenses/by/4.0/)",
      "source": "https://sketchfab.com/3d-models/robot-alberto-ferrari-c529c76bfbb244d8868637e653c203c5",
      "title": "Robot Alberto Ferrari"
    },
    "generator": "Sketchfab-12.65.0",
    "version": "2.0"
  },
  "bufferViews": [
    {
      "buffer": 0,
      "byteLength": 154488,
      "name": "floatBufferViews",
      "target": 34963
    },
    {
      "buffer": 0,
      "byteLength": 122920,
      "byteOffset": 154488,
      "byteStride": 8,
      "name": "floatBufferViews",
      "target": 34962
    },
    {
      "buffer": 0,
      "byteLength": 368760,
      "byteOffset": 277408,
      "byteStride": 12,
      "name": "floatBufferViews",
      "target": 34962
    }
  ],
  "buffers": [
    {
      "byteLength": 646168,
      "uri": "scene.bin"
    }
  ],
  "materials": [
    {
      "doubleSided": true,
      "emissiveFactor": [
        0.03006750923718633,
        0.03006750923718633,
        0.03006750923718633
      ],
      "name": "robot_ferro_scuro_MAT",
      "pbrMetallicRoughness": {
        "baseColorFactor": [
          0.1255469462,
          0.1255469462,
          0.1255469462,
          1.0
        ],
        "metallicFactor": 0.0,
        "roughnessFactor": 0.9207483815999999
      }
    },
    {
      "doubleSided": true,
      "emissiveFactor": [
        0.0107114128,
        0.0104578475,
        0.0149930394
      ],
      "name": "robot_scuro_MAT",
      "pbrMetallicRoughness": {
        "baseColorFactor": [
          0.0564,
          0.0654397,
          0.1,
          1.0
        ],
        "metallicFactor": 0.0,
        "roughnessFactor": 0.8559035894
      }
    },
    {
      "doubleSided": true,
      "name": "robot_marroncino_MAT",
      "pbrMetallicRoughness": {
        "baseColorFactor": [
          0.396104,
          0.265633,
          0.116839,
          1.0
        ],
        "metallicFactor": 0.0,
        "roughnessFactor": 0.9207483815999999
      }
    },
    {
      "doubleSided": true,
      "emissiveFactor": [
        0.1520353515983383,
        0.1520353515983383,
        0.1520353515983383
      ],
      "name": "robot_ferro_MAT",
      "pbrMetallicRoughness": {
        "baseColorFactor": [
          0.526201,
          0.586685,
          0.616883,
          1.0
        ],
        "metallicFactor": 0.0,
        "roughnessFactor": 0.8580411585000001
      }
    },
    {
      "doubleSided": true,
      "name": "gomma",
      "pbrMetallicRoughness": {
        "baseColorFactor": [
          0.0177319703,
          0.0177319703,
          0.0177319703,
          1.0
        ],
        "metallicFactor": 0.0,
        "roughnessFactor": 0.6
      }
    },
    {
      "doubleSided": true,
      "emissiveFactor": [
        1.0,
        0.0,
        0.0
      ],
      "name": "rosso",
      "pbrMetallicRoughness": {
        "baseColorFactor": [
          1.0,
          0.0770003,
          0.0770003,
          1.0
        ],
        "metallicFactor": 0.0,
        "roughnessFactor": 0.9394373618
      }
    },
    {
      "doubleSided": true,
      "name": "robot_scuro_MAT1",
      "pbrMetallicRoughness": {
        "baseColorFactor": [
          0.140123,
          0.185119,
          0.357143,
          1.0
        ],
        "metallicFactor": 0.0,
        "roughnessFactor": 0.8559035894
      }
    },
    {
      "doubleSided": true,
      "name": "lambert4",
      "pbrMetallicRoughness": {
        "baseColorFactor": [
          0.00835382,
          0.442,
          0.0,
          1.0
        ],
        "metallicFactor": 0.0,
        "roughnessFactor": 0.6
      }
    },
    {
      "doubleSided": true,
      "name": "giallo",
      "pbrMetallicRoughness": {
        "baseColorFactor": [
          1.0,
          0.790002,
          0.09,
          1.0
        ],
        "metallicFactor": 0.0,
        "roughnessFactor": 0.6
      }
    }
  ],
  "meshes": [
    {
      "name": "robot_bacino_04_robot_ferro_scuro_MAT_0",
      "primitives": [
        {
          "attributes": {
            "NORMAL": 1,
            "POSITION": 0,
            "TEXCOORD_0": 2
          },
          "indices": 3,
          "material": 0,
          "mode": 4
        }
      ]
    },
    {
      "name": "robot_bacino_04_robot_scuro_MAT_0",
      "primitives": [
        {
          "attributes": {
            "NORMAL": 5,
            "POSITION": 4,
            "TEXCOORD_0": 6
          },
          "indices": 7,
          "material": 1,
          "mode": 4
        }
      ]
    },
    {
      "name": "robot_bacino_04_robot_marroncino_MAT_0",
      "primitives": [
        {
          "attributes": {
            "NORMAL": 9,
            "POSITION": 8,
            "TEXCOORD_0": 10
          },
          "indices": 11,
          "material": 2,
          "mode": 4
        }
      ]
    },
    {
      "name": "robot_bacino_04_robot_ferro_MAT_0",
      "primitives": [
        {
          "attributes": {
            "NORMAL": 13,
            "POSITION": 12,
            "TEXCOORD_0": 14
          },
          "indices": 15,
          "material": 3,
          "mode": 4
        }
      ]
    },
    {
      "name": "robot_bacino_04_gomma_0",
      "primitives": [
        {
          "attributes": {
            "NORMAL": 17,
            "POSITION": 16,
            "TEXCOORD_0": 18
          },
          "indices": 19,
          "material": 4,
          "mode": 4
        }
      ]
    },
    {
      "name": "robot_bacino_04_rosso_0",
      "primitives": [
        {
          "attributes": {
            "NORMAL": 21,
            "POSITION": 20,
            "TEXCOORD_0": 22
          },
          "indices": 23,
          "material": 5,
          "mode": 4
        }
      ]
    },
    {
      "name": "robot_bacino_04_robot_scuro_MAT1_0",
      "primitives": [
        {
          "attributes": {
            "NORMAL": 25,
            "POSITION": 24,
            "TEXCOORD_0": 26
          },
          "indices": 27,
          "material": 6,
          "mode": 4
        }
      ]
    },
    {
      "name": "robot_bacino_04_lambert4_0",
      "primitives": [
        {
          "attributes": {
            "NORMAL": 29,
            "POSITION": 28,
            "TEXCOORD_0": 30
          },
          "indices": 31,
          "material": 7,
          "mode": 4
        }
      ]
    },
    {
      "name": "robot_bacino_04_giallo_0",
      "primitives": [
        {
          "attributes": {
            "NORMAL": 33,
            "POSITION": 32,
            "TEXCOORD_0": 34
          },
          "indices": 35,
          "material": 8,
          "mode": 4
        }
      ]
    }
  ],
  "nodes": [
    {
      "children": [
        1
      ],
      "matrix": [
        0.023053176701068878,
        0.0,
        0.0,
        0.0,
        0.0,
        5.118833512855776e-18,
        -0.023053176701068878,
        0.0,
        0.0,
        0.023053176701068878,
        5.118833512855776e-18,
        0.0,
        0.0,
        0.0,
        0.0,
        1.0
      ],
      "name": "Sketchfab_model"
    },
    {
      "children": [
        2
      ],
      "matrix": [
        1.0,
        0.0,
        0.0,
        0.0,
        0.0,
        0.0,
        1.0,
        0.0,
        0.0,
        -1.0,
        0.0,
        0.0,
        0.0,
        0.0,
        0.0,
        1.0
      ],
      "name": "e61a7d35b2844995975d9b2894048aaa.fbx"
    },
    {
      "children": [
        3,
        5
      ],
      "name": "RootNode"
    },
    {
      "children": [
        4
      ],
      "matrix": [
        1.0,
        0.0,
        -2.220446049250313e-16,
        0.0,
        0.0,
        1.0,
        0.0,
        0.0,
        2.220446049250313e-16,
        0.0,
        1.0,
        0.0,
        -1000.0999755859375,
        0.0,
        0.0,
        1.0
      ],
      "name": "left"
    },
    {
      "name": "Object_4"
    },
    {
      "children": [
        6,
        7,
        8,
        9,
        10,
        11,
        12,
        13,
        14
      ],
      "name": "robot_bacino_04"
    },
    {
      "mesh": 0,
      "name": "robot_bacino_04_robot_ferro_scuro_MAT_0"
    },
    {
      "mesh": 1,
      "name": "robot_bacino_04_robot_scuro_MAT_0"
    },
    {
      "mesh": 2,
      "name": "robot_bacino_04_robot_marroncino_MAT_0"
    },
    {
      "mesh": 3,
      "name": "robot_bacino_04_robot_ferro_MAT_0"
    },
    {
      "mesh": 4,
      "name": "robot_bacino_04_gomma_0"
    },
    {
      "mesh": 5,
      "name": "robot_bacino_04_rosso_0"
    },
    {
      "mesh": 6,
      "name": "robot_bacino_04_robot_scuro_MAT1_0"
    },
    {
      "mesh": 7,
      "name": "robot_bacino_04_lambert4_0"
    },
    {
      "mesh": 8,
      "name": "robot_bacino_04_giallo_0"
    }
  ],
  "scene": 0,
  "scenes": [
    {
      "name": "Sketchfab_Scene",
      "nodes": [
        0
      ]
    }
  ]
}
